<mxfile host="app.diagrams.net" modified="2024-05-11T09:40:06.190Z" agent="Mozilla/5.0 (Windows NT 10.0; Win64; x64) AppleWebKit/537.36 (KHTML, like Gecko) Chrome/124.0.0.0 Safari/537.36" etag="qXC2lSz3D0UqNnzbKyEg" version="24.4.0" type="device">
  <diagram id="C5RBs43oDa-KdzZeNtuy" name="Page-1">
    <mxGraphModel dx="1877" dy="522" grid="1" gridSize="10" guides="1" tooltips="1" connect="1" arrows="1" fold="1" page="1" pageScale="1" pageWidth="827" pageHeight="1169" math="0" shadow="0">
      <root>
        <mxCell id="WIyWlLk6GJQsqaUBKTNV-0" />
        <mxCell id="WIyWlLk6GJQsqaUBKTNV-1" parent="WIyWlLk6GJQsqaUBKTNV-0" />
        <mxCell id="iniAoGMS87wpyo4GjcRw-3" value="" style="edgeStyle=orthogonalEdgeStyle;rounded=0;orthogonalLoop=1;jettySize=auto;html=1;" edge="1" parent="WIyWlLk6GJQsqaUBKTNV-1" source="WIyWlLk6GJQsqaUBKTNV-3" target="iniAoGMS87wpyo4GjcRw-2">
          <mxGeometry relative="1" as="geometry" />
        </mxCell>
        <mxCell id="WIyWlLk6GJQsqaUBKTNV-3" value="Landing page" style="rounded=1;whiteSpace=wrap;html=1;fontSize=12;glass=0;strokeWidth=1;shadow=0;" parent="WIyWlLk6GJQsqaUBKTNV-1" vertex="1">
          <mxGeometry x="160" y="80" width="120" height="40" as="geometry" />
        </mxCell>
        <mxCell id="iniAoGMS87wpyo4GjcRw-5" value="" style="edgeStyle=orthogonalEdgeStyle;rounded=0;orthogonalLoop=1;jettySize=auto;html=1;" edge="1" parent="WIyWlLk6GJQsqaUBKTNV-1" source="iniAoGMS87wpyo4GjcRw-2" target="iniAoGMS87wpyo4GjcRw-4">
          <mxGeometry relative="1" as="geometry" />
        </mxCell>
        <mxCell id="iniAoGMS87wpyo4GjcRw-2" value="Log in page" style="rounded=1;whiteSpace=wrap;html=1;fontSize=12;glass=0;strokeWidth=1;shadow=0;" vertex="1" parent="WIyWlLk6GJQsqaUBKTNV-1">
          <mxGeometry x="360" y="80" width="120" height="40" as="geometry" />
        </mxCell>
        <mxCell id="iniAoGMS87wpyo4GjcRw-7" value="" style="edgeStyle=orthogonalEdgeStyle;rounded=0;orthogonalLoop=1;jettySize=auto;html=1;" edge="1" parent="WIyWlLk6GJQsqaUBKTNV-1" source="iniAoGMS87wpyo4GjcRw-4" target="iniAoGMS87wpyo4GjcRw-6">
          <mxGeometry relative="1" as="geometry" />
        </mxCell>
        <mxCell id="iniAoGMS87wpyo4GjcRw-8" value="NO" style="edgeLabel;html=1;align=center;verticalAlign=middle;resizable=0;points=[];" vertex="1" connectable="0" parent="iniAoGMS87wpyo4GjcRw-7">
          <mxGeometry x="-0.13" y="1" relative="1" as="geometry">
            <mxPoint as="offset" />
          </mxGeometry>
        </mxCell>
        <mxCell id="iniAoGMS87wpyo4GjcRw-28" value="" style="edgeStyle=orthogonalEdgeStyle;rounded=0;orthogonalLoop=1;jettySize=auto;html=1;" edge="1" parent="WIyWlLk6GJQsqaUBKTNV-1" source="iniAoGMS87wpyo4GjcRw-4" target="iniAoGMS87wpyo4GjcRw-27">
          <mxGeometry relative="1" as="geometry" />
        </mxCell>
        <mxCell id="iniAoGMS87wpyo4GjcRw-33" value="YES" style="edgeLabel;html=1;align=center;verticalAlign=middle;resizable=0;points=[];" vertex="1" connectable="0" parent="iniAoGMS87wpyo4GjcRw-28">
          <mxGeometry x="-0.3378" relative="1" as="geometry">
            <mxPoint as="offset" />
          </mxGeometry>
        </mxCell>
        <mxCell id="iniAoGMS87wpyo4GjcRw-4" value="Has an account" style="rhombus;whiteSpace=wrap;html=1;rounded=1;glass=0;strokeWidth=1;shadow=0;" vertex="1" parent="WIyWlLk6GJQsqaUBKTNV-1">
          <mxGeometry x="580" y="60" width="80" height="80" as="geometry" />
        </mxCell>
        <mxCell id="iniAoGMS87wpyo4GjcRw-10" value="" style="edgeStyle=orthogonalEdgeStyle;rounded=0;orthogonalLoop=1;jettySize=auto;html=1;" edge="1" parent="WIyWlLk6GJQsqaUBKTNV-1" source="iniAoGMS87wpyo4GjcRw-6" target="iniAoGMS87wpyo4GjcRw-9">
          <mxGeometry relative="1" as="geometry" />
        </mxCell>
        <mxCell id="iniAoGMS87wpyo4GjcRw-19" value="NO" style="edgeLabel;html=1;align=center;verticalAlign=middle;resizable=0;points=[];" vertex="1" connectable="0" parent="iniAoGMS87wpyo4GjcRw-10">
          <mxGeometry x="-0.29" relative="1" as="geometry">
            <mxPoint as="offset" />
          </mxGeometry>
        </mxCell>
        <mxCell id="iniAoGMS87wpyo4GjcRw-30" value="" style="edgeStyle=orthogonalEdgeStyle;rounded=0;orthogonalLoop=1;jettySize=auto;html=1;" edge="1" parent="WIyWlLk6GJQsqaUBKTNV-1" source="iniAoGMS87wpyo4GjcRw-6" target="iniAoGMS87wpyo4GjcRw-29">
          <mxGeometry relative="1" as="geometry" />
        </mxCell>
        <mxCell id="iniAoGMS87wpyo4GjcRw-34" value="YES" style="edgeLabel;html=1;align=center;verticalAlign=middle;resizable=0;points=[];" vertex="1" connectable="0" parent="iniAoGMS87wpyo4GjcRw-30">
          <mxGeometry x="-0.3378" y="3" relative="1" as="geometry">
            <mxPoint as="offset" />
          </mxGeometry>
        </mxCell>
        <mxCell id="iniAoGMS87wpyo4GjcRw-6" value="Is a Student" style="rhombus;whiteSpace=wrap;html=1;rounded=1;glass=0;strokeWidth=1;shadow=0;" vertex="1" parent="WIyWlLk6GJQsqaUBKTNV-1">
          <mxGeometry x="740" y="60" width="80" height="80" as="geometry" />
        </mxCell>
        <mxCell id="iniAoGMS87wpyo4GjcRw-12" value="" style="edgeStyle=orthogonalEdgeStyle;rounded=0;orthogonalLoop=1;jettySize=auto;html=1;" edge="1" parent="WIyWlLk6GJQsqaUBKTNV-1" source="iniAoGMS87wpyo4GjcRw-9" target="iniAoGMS87wpyo4GjcRw-11">
          <mxGeometry relative="1" as="geometry" />
        </mxCell>
        <mxCell id="iniAoGMS87wpyo4GjcRw-20" value="NO" style="edgeLabel;html=1;align=center;verticalAlign=middle;resizable=0;points=[];" vertex="1" connectable="0" parent="iniAoGMS87wpyo4GjcRw-12">
          <mxGeometry x="-0.02" y="2" relative="1" as="geometry">
            <mxPoint as="offset" />
          </mxGeometry>
        </mxCell>
        <mxCell id="iniAoGMS87wpyo4GjcRw-32" value="" style="edgeStyle=orthogonalEdgeStyle;rounded=0;orthogonalLoop=1;jettySize=auto;html=1;" edge="1" parent="WIyWlLk6GJQsqaUBKTNV-1" source="iniAoGMS87wpyo4GjcRw-9" target="iniAoGMS87wpyo4GjcRw-31">
          <mxGeometry relative="1" as="geometry" />
        </mxCell>
        <mxCell id="iniAoGMS87wpyo4GjcRw-35" value="YES" style="edgeLabel;html=1;align=center;verticalAlign=middle;resizable=0;points=[];" vertex="1" connectable="0" parent="iniAoGMS87wpyo4GjcRw-32">
          <mxGeometry x="-0.2489" y="-1" relative="1" as="geometry">
            <mxPoint as="offset" />
          </mxGeometry>
        </mxCell>
        <mxCell id="iniAoGMS87wpyo4GjcRw-9" value="Is a Mentor" style="rhombus;whiteSpace=wrap;html=1;rounded=1;glass=0;strokeWidth=1;shadow=0;" vertex="1" parent="WIyWlLk6GJQsqaUBKTNV-1">
          <mxGeometry x="900" y="60" width="80" height="80" as="geometry" />
        </mxCell>
        <mxCell id="iniAoGMS87wpyo4GjcRw-11" value="Request the supervisor for an account" style="whiteSpace=wrap;html=1;rounded=1;glass=0;strokeWidth=1;shadow=0;" vertex="1" parent="WIyWlLk6GJQsqaUBKTNV-1">
          <mxGeometry x="1040" y="70" width="120" height="60" as="geometry" />
        </mxCell>
        <mxCell id="iniAoGMS87wpyo4GjcRw-59" value="" style="edgeStyle=orthogonalEdgeStyle;rounded=0;orthogonalLoop=1;jettySize=auto;html=1;" edge="1" parent="WIyWlLk6GJQsqaUBKTNV-1" source="iniAoGMS87wpyo4GjcRw-27">
          <mxGeometry relative="1" as="geometry">
            <mxPoint x="620" y="370" as="targetPoint" />
          </mxGeometry>
        </mxCell>
        <mxCell id="iniAoGMS87wpyo4GjcRw-27" value="Login" style="whiteSpace=wrap;html=1;rounded=1;glass=0;strokeWidth=1;shadow=0;" vertex="1" parent="WIyWlLk6GJQsqaUBKTNV-1">
          <mxGeometry x="560" y="230" width="120" height="60" as="geometry" />
        </mxCell>
        <mxCell id="iniAoGMS87wpyo4GjcRw-29" value="Student Registration" style="whiteSpace=wrap;html=1;rounded=1;glass=0;strokeWidth=1;shadow=0;" vertex="1" parent="WIyWlLk6GJQsqaUBKTNV-1">
          <mxGeometry x="720" y="230" width="120" height="60" as="geometry" />
        </mxCell>
        <mxCell id="iniAoGMS87wpyo4GjcRw-31" value="Mentor Registration" style="whiteSpace=wrap;html=1;rounded=1;glass=0;strokeWidth=1;shadow=0;" vertex="1" parent="WIyWlLk6GJQsqaUBKTNV-1">
          <mxGeometry x="880" y="230" width="120" height="60" as="geometry" />
        </mxCell>
        <mxCell id="iniAoGMS87wpyo4GjcRw-60" value="User Roles" style="shape=table;startSize=30;container=1;collapsible=0;childLayout=tableLayout;strokeColor=default;fontSize=16;" vertex="1" parent="WIyWlLk6GJQsqaUBKTNV-1">
          <mxGeometry x="560" y="370" width="120" height="190" as="geometry" />
        </mxCell>
        <mxCell id="iniAoGMS87wpyo4GjcRw-73" style="shape=tableRow;horizontal=0;startSize=0;swimlaneHead=0;swimlaneBody=0;strokeColor=inherit;top=0;left=0;bottom=0;right=0;collapsible=0;dropTarget=0;fillColor=none;points=[[0,0.5],[1,0.5]];portConstraint=eastwest;fontSize=16;" vertex="1" parent="iniAoGMS87wpyo4GjcRw-60">
          <mxGeometry y="30" width="120" height="40" as="geometry" />
        </mxCell>
        <mxCell id="iniAoGMS87wpyo4GjcRw-74" value="&lt;font style=&quot;font-size: 12px;&quot;&gt;Admin&lt;/font&gt;" style="shape=partialRectangle;html=1;whiteSpace=wrap;connectable=0;strokeColor=inherit;overflow=hidden;fillColor=none;top=0;left=0;bottom=0;right=0;pointerEvents=1;fontSize=16;" vertex="1" parent="iniAoGMS87wpyo4GjcRw-73">
          <mxGeometry width="120" height="40" as="geometry">
            <mxRectangle width="120" height="40" as="alternateBounds" />
          </mxGeometry>
        </mxCell>
        <mxCell id="iniAoGMS87wpyo4GjcRw-61" value="" style="shape=tableRow;horizontal=0;startSize=0;swimlaneHead=0;swimlaneBody=0;strokeColor=inherit;top=0;left=0;bottom=0;right=0;collapsible=0;dropTarget=0;fillColor=none;points=[[0,0.5],[1,0.5]];portConstraint=eastwest;fontSize=16;" vertex="1" parent="iniAoGMS87wpyo4GjcRw-60">
          <mxGeometry y="70" width="120" height="40" as="geometry" />
        </mxCell>
        <mxCell id="iniAoGMS87wpyo4GjcRw-62" value="&lt;font style=&quot;font-size: 12px;&quot;&gt;CPD Provider&lt;/font&gt;" style="shape=partialRectangle;html=1;whiteSpace=wrap;connectable=0;strokeColor=inherit;overflow=hidden;fillColor=none;top=0;left=0;bottom=0;right=0;pointerEvents=1;fontSize=16;" vertex="1" parent="iniAoGMS87wpyo4GjcRw-61">
          <mxGeometry width="120" height="40" as="geometry">
            <mxRectangle width="120" height="40" as="alternateBounds" />
          </mxGeometry>
        </mxCell>
        <mxCell id="iniAoGMS87wpyo4GjcRw-65" value="" style="shape=tableRow;horizontal=0;startSize=0;swimlaneHead=0;swimlaneBody=0;strokeColor=inherit;top=0;left=0;bottom=0;right=0;collapsible=0;dropTarget=0;fillColor=none;points=[[0,0.5],[1,0.5]];portConstraint=eastwest;fontSize=16;" vertex="1" parent="iniAoGMS87wpyo4GjcRw-60">
          <mxGeometry y="110" width="120" height="40" as="geometry" />
        </mxCell>
        <mxCell id="iniAoGMS87wpyo4GjcRw-66" value="&lt;font style=&quot;font-size: 12px;&quot;&gt;Mentor&lt;/font&gt;" style="shape=partialRectangle;html=1;whiteSpace=wrap;connectable=0;strokeColor=inherit;overflow=hidden;fillColor=none;top=0;left=0;bottom=0;right=0;pointerEvents=1;fontSize=16;" vertex="1" parent="iniAoGMS87wpyo4GjcRw-65">
          <mxGeometry width="120" height="40" as="geometry">
            <mxRectangle width="120" height="40" as="alternateBounds" />
          </mxGeometry>
        </mxCell>
        <mxCell id="iniAoGMS87wpyo4GjcRw-69" value="" style="shape=tableRow;horizontal=0;startSize=0;swimlaneHead=0;swimlaneBody=0;strokeColor=inherit;top=0;left=0;bottom=0;right=0;collapsible=0;dropTarget=0;fillColor=none;points=[[0,0.5],[1,0.5]];portConstraint=eastwest;fontSize=16;" vertex="1" parent="iniAoGMS87wpyo4GjcRw-60">
          <mxGeometry y="150" width="120" height="40" as="geometry" />
        </mxCell>
        <mxCell id="iniAoGMS87wpyo4GjcRw-70" value="&lt;font style=&quot;font-size: 12px;&quot;&gt;Student&lt;/font&gt;" style="shape=partialRectangle;html=1;whiteSpace=wrap;connectable=0;strokeColor=inherit;overflow=hidden;fillColor=none;top=0;left=0;bottom=0;right=0;pointerEvents=1;fontSize=16;" vertex="1" parent="iniAoGMS87wpyo4GjcRw-69">
          <mxGeometry width="120" height="40" as="geometry">
            <mxRectangle width="120" height="40" as="alternateBounds" />
          </mxGeometry>
        </mxCell>
        <mxCell id="iniAoGMS87wpyo4GjcRw-92" style="edgeStyle=orthogonalEdgeStyle;rounded=0;orthogonalLoop=1;jettySize=auto;html=1;exitX=1;exitY=0.5;exitDx=0;exitDy=0;" edge="1" parent="WIyWlLk6GJQsqaUBKTNV-1" source="iniAoGMS87wpyo4GjcRw-73" target="iniAoGMS87wpyo4GjcRw-93">
          <mxGeometry relative="1" as="geometry">
            <mxPoint x="770" y="420" as="targetPoint" />
          </mxGeometry>
        </mxCell>
        <mxCell id="iniAoGMS87wpyo4GjcRw-95" value="" style="edgeStyle=orthogonalEdgeStyle;rounded=0;orthogonalLoop=1;jettySize=auto;html=1;" edge="1" parent="WIyWlLk6GJQsqaUBKTNV-1" source="iniAoGMS87wpyo4GjcRw-93" target="iniAoGMS87wpyo4GjcRw-94">
          <mxGeometry relative="1" as="geometry" />
        </mxCell>
        <mxCell id="iniAoGMS87wpyo4GjcRw-93" value="&lt;font style=&quot;font-size: 12px;&quot;&gt;User Management&lt;/font&gt;" style="rounded=1;whiteSpace=wrap;html=1;" vertex="1" parent="WIyWlLk6GJQsqaUBKTNV-1">
          <mxGeometry x="760" y="390" width="120" height="60" as="geometry" />
        </mxCell>
        <mxCell id="iniAoGMS87wpyo4GjcRw-97" value="" style="edgeStyle=orthogonalEdgeStyle;rounded=0;orthogonalLoop=1;jettySize=auto;html=1;" edge="1" parent="WIyWlLk6GJQsqaUBKTNV-1" source="iniAoGMS87wpyo4GjcRw-94" target="iniAoGMS87wpyo4GjcRw-96">
          <mxGeometry relative="1" as="geometry" />
        </mxCell>
        <mxCell id="iniAoGMS87wpyo4GjcRw-106" value="NO" style="edgeLabel;html=1;align=center;verticalAlign=middle;resizable=0;points=[];" vertex="1" connectable="0" parent="iniAoGMS87wpyo4GjcRw-97">
          <mxGeometry x="-0.2467" y="1" relative="1" as="geometry">
            <mxPoint as="offset" />
          </mxGeometry>
        </mxCell>
        <mxCell id="iniAoGMS87wpyo4GjcRw-99" value="" style="edgeStyle=orthogonalEdgeStyle;rounded=0;orthogonalLoop=1;jettySize=auto;html=1;" edge="1" parent="WIyWlLk6GJQsqaUBKTNV-1" source="iniAoGMS87wpyo4GjcRw-94" target="iniAoGMS87wpyo4GjcRw-98">
          <mxGeometry relative="1" as="geometry" />
        </mxCell>
        <mxCell id="iniAoGMS87wpyo4GjcRw-107" value="YES" style="edgeLabel;html=1;align=center;verticalAlign=middle;resizable=0;points=[];" vertex="1" connectable="0" parent="iniAoGMS87wpyo4GjcRw-99">
          <mxGeometry x="-0.1911" relative="1" as="geometry">
            <mxPoint as="offset" />
          </mxGeometry>
        </mxCell>
        <mxCell id="iniAoGMS87wpyo4GjcRw-94" value="Is User Self Registered" style="rhombus;whiteSpace=wrap;html=1;rounded=1;" vertex="1" parent="WIyWlLk6GJQsqaUBKTNV-1">
          <mxGeometry x="980" y="380" width="80" height="80" as="geometry" />
        </mxCell>
        <mxCell id="iniAoGMS87wpyo4GjcRw-96" value="&lt;font style=&quot;font-size: 12px;&quot;&gt;Registration&lt;/font&gt;" style="whiteSpace=wrap;html=1;rounded=1;" vertex="1" parent="WIyWlLk6GJQsqaUBKTNV-1">
          <mxGeometry x="1120" y="390" width="120" height="60" as="geometry" />
        </mxCell>
        <mxCell id="iniAoGMS87wpyo4GjcRw-98" value="&lt;font style=&quot;font-size: 12px;&quot;&gt;Approve Registration&lt;/font&gt;" style="whiteSpace=wrap;html=1;rounded=1;" vertex="1" parent="WIyWlLk6GJQsqaUBKTNV-1">
          <mxGeometry x="960" y="550" width="120" height="60" as="geometry" />
        </mxCell>
        <mxCell id="iniAoGMS87wpyo4GjcRw-102" style="edgeStyle=orthogonalEdgeStyle;rounded=0;orthogonalLoop=1;jettySize=auto;html=1;exitX=0;exitY=0.5;exitDx=0;exitDy=0;" edge="1" parent="WIyWlLk6GJQsqaUBKTNV-1" source="iniAoGMS87wpyo4GjcRw-61" target="iniAoGMS87wpyo4GjcRw-103">
          <mxGeometry relative="1" as="geometry">
            <mxPoint x="480" y="460" as="targetPoint" />
          </mxGeometry>
        </mxCell>
        <mxCell id="iniAoGMS87wpyo4GjcRw-105" value="" style="edgeStyle=orthogonalEdgeStyle;rounded=0;orthogonalLoop=1;jettySize=auto;html=1;" edge="1" parent="WIyWlLk6GJQsqaUBKTNV-1" source="iniAoGMS87wpyo4GjcRw-103" target="iniAoGMS87wpyo4GjcRw-104">
          <mxGeometry relative="1" as="geometry" />
        </mxCell>
        <mxCell id="iniAoGMS87wpyo4GjcRw-103" value="Course Management" style="rounded=1;whiteSpace=wrap;html=1;" vertex="1" parent="WIyWlLk6GJQsqaUBKTNV-1">
          <mxGeometry x="360" y="430" width="120" height="60" as="geometry" />
        </mxCell>
        <mxCell id="iniAoGMS87wpyo4GjcRw-109" value="" style="edgeStyle=orthogonalEdgeStyle;rounded=0;orthogonalLoop=1;jettySize=auto;html=1;" edge="1" parent="WIyWlLk6GJQsqaUBKTNV-1" source="iniAoGMS87wpyo4GjcRw-104" target="iniAoGMS87wpyo4GjcRw-108">
          <mxGeometry relative="1" as="geometry" />
        </mxCell>
        <mxCell id="iniAoGMS87wpyo4GjcRw-104" value="Course exists" style="rhombus;whiteSpace=wrap;html=1;rounded=1;" vertex="1" parent="WIyWlLk6GJQsqaUBKTNV-1">
          <mxGeometry x="180" y="420" width="80" height="80" as="geometry" />
        </mxCell>
        <mxCell id="iniAoGMS87wpyo4GjcRw-111" value="" style="edgeStyle=orthogonalEdgeStyle;rounded=0;orthogonalLoop=1;jettySize=auto;html=1;" edge="1" parent="WIyWlLk6GJQsqaUBKTNV-1" source="iniAoGMS87wpyo4GjcRw-108" target="iniAoGMS87wpyo4GjcRw-110">
          <mxGeometry relative="1" as="geometry" />
        </mxCell>
        <mxCell id="iniAoGMS87wpyo4GjcRw-108" value="Add Course" style="whiteSpace=wrap;html=1;rounded=1;" vertex="1" parent="WIyWlLk6GJQsqaUBKTNV-1">
          <mxGeometry y="430" width="120" height="60" as="geometry" />
        </mxCell>
        <mxCell id="iniAoGMS87wpyo4GjcRw-113" value="" style="edgeStyle=orthogonalEdgeStyle;rounded=0;orthogonalLoop=1;jettySize=auto;html=1;" edge="1" parent="WIyWlLk6GJQsqaUBKTNV-1" source="iniAoGMS87wpyo4GjcRw-110" target="iniAoGMS87wpyo4GjcRw-112">
          <mxGeometry relative="1" as="geometry" />
        </mxCell>
        <mxCell id="iniAoGMS87wpyo4GjcRw-117" value="NO" style="edgeLabel;html=1;align=center;verticalAlign=middle;resizable=0;points=[];" vertex="1" connectable="0" parent="iniAoGMS87wpyo4GjcRw-113">
          <mxGeometry x="0.0867" relative="1" as="geometry">
            <mxPoint as="offset" />
          </mxGeometry>
        </mxCell>
        <mxCell id="iniAoGMS87wpyo4GjcRw-115" value="" style="edgeStyle=orthogonalEdgeStyle;rounded=0;orthogonalLoop=1;jettySize=auto;html=1;" edge="1" parent="WIyWlLk6GJQsqaUBKTNV-1" source="iniAoGMS87wpyo4GjcRw-110" target="iniAoGMS87wpyo4GjcRw-114">
          <mxGeometry relative="1" as="geometry" />
        </mxCell>
        <mxCell id="iniAoGMS87wpyo4GjcRw-116" value="YES" style="edgeLabel;html=1;align=center;verticalAlign=middle;resizable=0;points=[];" vertex="1" connectable="0" parent="iniAoGMS87wpyo4GjcRw-115">
          <mxGeometry x="-0.1689" relative="1" as="geometry">
            <mxPoint as="offset" />
          </mxGeometry>
        </mxCell>
        <mxCell id="iniAoGMS87wpyo4GjcRw-110" value="Course Available Externally" style="rhombus;whiteSpace=wrap;html=1;rounded=1;" vertex="1" parent="WIyWlLk6GJQsqaUBKTNV-1">
          <mxGeometry x="-180" y="420" width="80" height="80" as="geometry" />
        </mxCell>
        <mxCell id="iniAoGMS87wpyo4GjcRw-112" value="Add the Course Internally" style="whiteSpace=wrap;html=1;rounded=1;" vertex="1" parent="WIyWlLk6GJQsqaUBKTNV-1">
          <mxGeometry x="-360" y="430" width="120" height="60" as="geometry" />
        </mxCell>
        <mxCell id="iniAoGMS87wpyo4GjcRw-114" value="Link to Existing course" style="whiteSpace=wrap;html=1;rounded=1;" vertex="1" parent="WIyWlLk6GJQsqaUBKTNV-1">
          <mxGeometry x="-200" y="590" width="120" height="60" as="geometry" />
        </mxCell>
        <mxCell id="iniAoGMS87wpyo4GjcRw-119" style="edgeStyle=orthogonalEdgeStyle;rounded=0;orthogonalLoop=1;jettySize=auto;html=1;exitX=0;exitY=0.5;exitDx=0;exitDy=0;" edge="1" parent="WIyWlLk6GJQsqaUBKTNV-1" source="iniAoGMS87wpyo4GjcRw-69" target="iniAoGMS87wpyo4GjcRw-120">
          <mxGeometry relative="1" as="geometry">
            <mxPoint x="480" y="540" as="targetPoint" />
          </mxGeometry>
        </mxCell>
        <mxCell id="iniAoGMS87wpyo4GjcRw-122" value="" style="edgeStyle=orthogonalEdgeStyle;rounded=0;orthogonalLoop=1;jettySize=auto;html=1;" edge="1" parent="WIyWlLk6GJQsqaUBKTNV-1" source="iniAoGMS87wpyo4GjcRw-120" target="iniAoGMS87wpyo4GjcRw-121">
          <mxGeometry relative="1" as="geometry" />
        </mxCell>
        <mxCell id="iniAoGMS87wpyo4GjcRw-120" value="Update Profile" style="rounded=1;whiteSpace=wrap;html=1;" vertex="1" parent="WIyWlLk6GJQsqaUBKTNV-1">
          <mxGeometry x="360" y="510" width="120" height="60" as="geometry" />
        </mxCell>
        <mxCell id="iniAoGMS87wpyo4GjcRw-124" value="" style="edgeStyle=orthogonalEdgeStyle;rounded=0;orthogonalLoop=1;jettySize=auto;html=1;" edge="1" parent="WIyWlLk6GJQsqaUBKTNV-1" source="iniAoGMS87wpyo4GjcRw-121" target="iniAoGMS87wpyo4GjcRw-123">
          <mxGeometry relative="1" as="geometry" />
        </mxCell>
        <mxCell id="iniAoGMS87wpyo4GjcRw-121" value="View Available Courses" style="rounded=1;whiteSpace=wrap;html=1;" vertex="1" parent="WIyWlLk6GJQsqaUBKTNV-1">
          <mxGeometry x="360" y="650" width="120" height="60" as="geometry" />
        </mxCell>
        <mxCell id="iniAoGMS87wpyo4GjcRw-123" value="Register to a Course" style="rounded=1;whiteSpace=wrap;html=1;" vertex="1" parent="WIyWlLk6GJQsqaUBKTNV-1">
          <mxGeometry x="160" y="650" width="120" height="60" as="geometry" />
        </mxCell>
      </root>
    </mxGraphModel>
  </diagram>
</mxfile>
